# xmcd
#
# Track frame offsets:
#	150
#	13639
#	26024
#	36074
#	47563
#	61535
#	86497
#	99678
#	114397
#	136176
#	150897
#	164336
#	180884
#	197857
#	209259
#	222934
#	236344
#	248970
#	266848
#	279370
#	293545
#	305733
#	317039
#
# Disc length: 4398 seconds
# Revision: 0
# Processed by: cddbd v1.5.2PL0 Copyright (c) Steve Scherf et al.
# Submitted via: dBpowerAMP V12.0
#
DISCID=32112c17
DTITLE=Various Artist - Soul Don't Worry! Black Gospel During the Civil Rights Era 1953-1967
DYEAR=2018
DGENRE=Gospel
TTITLE0=Myrtle Jackson - I'm Watching and Waiting
TTITLE1=Jimmy Jones and The Northern Airs - I Believe I'll Go Back Home
TTITLE2=Marie Knight - Stand By Me
TTITLE3=Odetta Perkins and The Lathamettes - Troubled Soul
TTITLE4=James Lowe - The Lord Will Make A Way Somehow
TTITLE5=The Melody Kings - I'm Going To Walk Through The Streets
TTITLE6=The Mighty Clouds Of Joy - My Religion
TTITLE7=Mari Jones and Johnny Moore's Three Blazers - In The Home
TTITLE8=The Ramparts - The Death Of Emmett Till
TTITLE9=Carl Hall and The Rasberry Singers - I Thank You Lord
TTITLE10=The Sensational Jubilettes - Jordan River
TTITLE11=The Sensational Linsey Singers - A Better World To Live In
TTITLE12=The Southern Bells - Viet Nam
TTITLE13=The Staple Singers - Standing At The Bedside Of A Neighbor
TTITLE14=Prof. Charles Taylor - I Woke Up This Morning
TTITLE15=Sister O.M. Terrell - The Gambling Man
TTITLE16=The Trumpets Of Joy - The News That Shook The Nation
TTITLE17=The Utterbach Concert Ensemble - Soon We'll Be Done
TTITLE18=The Victory Chorale Ensemble - Victory, Victory Shall Be Mine
TTITLE19=The Violinaires - Mother's Last prayer
TTITLE20=Rosie Wallace - Take Courage
TTITLE21=Clara Ward - Peace Be Still
TTITLE22=The Wooten Choral Ensemble - I Heard The Voice
EXTD=
EXTT0=
EXTT1=
EXTT2=
EXTT3=
EXTT4=
EXTT5=
EXTT6=
EXTT7=
EXTT8=
EXTT9=
EXTT10=
EXTT11=
EXTT12=
EXTT13=
EXTT14=
EXTT15=
EXTT16=
EXTT17=
EXTT18=
EXTT19=
EXTT20=
EXTT21=
EXTT22=
PLAYORDER=
